<svg width="166" height="51" viewBox="0 0 166 51" fill="none" xmlns="http://www.w3.org/2000/svg">
<path d="M54.0172 33.1755V23.5755C54.0172 21.0255 55.2922 19.7505 57.8422 19.7505H63.6922C66.2422 19.7505 67.5172 21.0255 67.5172 23.5755V33.1755C67.5172 35.5255 66.4339 36.7922 64.2672 36.9755L65.9422 40.2505L65.6672 40.7505H63.8922L61.9922 37.0005H57.8422C55.2922 37.0005 54.0172 35.7255 54.0172 33.1755ZM56.1172 33.4005C56.1172 34.5338 56.6839 35.1005 57.8172 35.1005H63.7172C64.8505 35.1005 65.4172 34.5338 65.4172 33.4005V23.3505C65.4172 22.2172 64.8505 21.6505 63.7172 21.6505H57.8172C56.6839 21.6505 56.1172 22.2172 56.1172 23.3505V33.4005ZM71.4221 33.2505V24.0005H73.4221V33.5005C73.4221 34.6672 74.0054 35.2505 75.1721 35.2505H80.1721V24.0005H82.1721V37.0005H75.1721C72.6721 37.0005 71.4221 35.7505 71.4221 33.2505ZM86.0705 37.0005V25.5005C86.6539 24.5005 87.7372 24.0005 89.3205 24.0005H91.8205L92.8205 24.7505V25.7505H89.3205C88.7539 25.7505 88.3372 25.9005 88.0705 26.2005V37.0005H86.0705ZM95.4223 21.6505V19.3505H97.5223V21.6505H95.4223ZM95.4723 37.0005V24.0005H97.4723V37.0005H95.4723ZM104.553 37.0005C102.036 37.0005 100.778 35.7422 100.778 33.2255C100.778 30.7088 102.036 29.4505 104.553 29.4505H109.128V27.5005C109.128 26.3338 108.545 25.7505 107.378 25.7505H102.028V24.7505L103.028 24.0005H107.378C109.878 24.0005 111.128 25.2505 111.128 27.7505V37.0005H104.553ZM102.778 33.5005C102.778 34.6672 103.361 35.2505 104.528 35.2505H109.128V31.2005H104.528C103.361 31.2005 102.778 31.7838 102.778 32.9505V33.5005ZM114.928 37.0005V25.5005C115.511 24.5005 116.595 24.0005 118.178 24.0005H120.678L121.678 24.7505V25.7505H118.178C117.611 25.7505 117.195 25.9005 116.928 26.2005V37.0005H114.928ZM124.33 37.0005V18.5005H126.33V24.0005H131.33C133.83 24.0005 135.08 25.2505 135.08 27.7505V33.2505C135.08 35.7505 133.83 37.0005 131.33 37.0005H124.33ZM126.33 35.2505H131.33C132.496 35.2505 133.08 34.6672 133.08 33.5005V27.5005C133.08 26.3338 132.496 25.7505 131.33 25.7505H126.33V35.2505ZM138.68 33.2505V27.7505C138.68 25.2505 139.93 24.0005 142.43 24.0005H145.93C148.43 24.0005 149.68 25.2505 149.68 27.7505V33.2505C149.68 35.7505 148.43 37.0005 145.93 37.0005H142.43C139.93 37.0005 138.68 35.7505 138.68 33.2505ZM140.68 33.5005C140.68 34.6672 141.264 35.2505 142.43 35.2505H145.93C147.097 35.2505 147.68 34.6672 147.68 33.5005V27.5005C147.68 26.3338 147.097 25.7505 145.93 25.7505H142.43C141.264 25.7505 140.68 26.3338 140.68 27.5005V33.5005ZM152.23 36.6255L156.83 30.3755L152.405 24.3755L152.58 24.0005H154.43L157.98 28.9255L161.53 24.0005H163.38L163.555 24.3755L159.13 30.3755L163.73 36.6255L163.555 37.0005H161.705L157.98 31.8255L154.255 37.0005H152.405L152.23 36.6255Z" fill="white"/>
<path d="M26.2216 44.023L44.847 31.1049C45.9807 30.317 46.6138 29.0446 46.6322 27.7452L46.8561 14.1551C46.8771 12.8778 46.1027 11.7294 44.9221 11.2872L32.3607 6.58207C31.1607 6.12934 29.7631 6.26803 28.6294 7.05591L10.0271 20.0084L26.3144 26.3242L26.2216 44.023Z" fill="#F95C19"/>
<path d="M28.9477 6.71895L10.2127 19.7131C9.07229 20.5056 8.43554 21.7855 8.41703 23.0925L8.19159 36.7751C8.17054 38.0523 8.94499 39.2007 10.1256 39.643L22.7725 44.3801C23.9795 44.8355 25.3853 44.696 26.5257 43.9035L45.2374 30.8748L30.7679 25.2639C29.6155 24.8171 28.8586 23.6946 28.8652 22.4425L28.9477 6.71895Z" fill="#CA3E02"/>
</svg>
